PathFileType	4	(X/Y/Z)	22_1_29_p1_0-323_filt_butterworth.trc
DataRate	CameraRate	NumFrames	NumMarkers	Units	OrigDataRate	OrigDataStartFrame	OrigNumFrames
53.0	53.0	7	27	m	53.0	161	323
Frame#	Time	RHip			RKnee			RAnkle			RBigToe			RSmallToe			RHeel			LHip			LKnee			LAnkle			LBigToe			LSmallToe			LHeel			Neck			Head			Nose			RShoulder			RElbow			RWrist			RThumb			RIndex			RPinky			LShoulder			LElbow			LWrist			LThumb			LIndex			LPinky			
		X1	Y1	Z1	X2	Y2	Z2	X3	Y3	Z3	X4	Y4	Z4	X5	Y5	Z5	X6	Y6	Z6	X7	Y7	Z7	X8	Y8	Z8	X9	Y9	Z9	X10	Y10	Z10	X11	Y11	Z11	X12	Y12	Z12	X13	Y13	Z13	X14	Y14	Z14	X15	Y15	Z15	X16	Y16	Z16	X17	Y17	Z17	X18	Y18	Z18	X19	Y19	Z19	X20	Y20	Z20	X21	Y21	Z21	X22	Y22	Z22	X23	Y23	Z23	X24	Y24	Z24	X25	Y25	Z25	X26	Y26	Z26	X27	Y27	Z27	
161	3.037735849056604	0.25677056032903833	0.564377396420666	0.8860727425237361	0.27004844445995635	0.14654341427017314	0.869457787958482	0.2926905809546538	-0.2780072381457525	0.8622097305591195	0.256716863139355	-0.25362690084895684	0.6792776353200859	0.315603955037336	-0.2603759345190835	0.7052167357359839	0.2900854951032341	-0.3671405771200129	0.9278857059228275	0.034616515751852886	0.5459573165423617	0.9106573451008971	0.07056844233922764	0.1441743676381546	0.8994726946718339	0.09792693119179226	-0.28332856032081843	0.8674598918600496	0.09886499749643335	-0.2659357788588931	0.6981206199086393	0.04977901267481484	-0.2784354929011862	0.7363316397763722	0.1188705622510569	-0.3291885914897565	0.8889433316707526	0.10982076938656285	1.1402525753863477	0.9235165737197133	0.08261853450212447	1.4081860840528593	0.8702382872695833	0.07557234418722933	1.2598969883169526	0.8298448260046776	0.2596752889678467	1.0705376876817494	0.9095810602115448	0.3712354848289514	0.8343183994252455	0.8692928776020719	0.32846842122459097	0.7004269496032256	0.7046123428134924	0.2322289915883392	0.6847370431381365	0.5668155740166472	0.2560811918969239	0.6655225873388086	0.5791737199058027	0.2817746378453764	0.6082605479068054	0.6228365317238086	-0.0457785064879226	1.0636500736141847	0.9467954033585428	-0.10675297656834887	0.8013832820668789	1.0560208622616734	-0.10454785602308383	0.6694313146680235	0.8796074704625649	-0.06366647485491135	0.6605003000101108	0.7725748170961929	-0.08378562318565301	0.631544285795583	0.7553775404813556	-0.097243363568084	0.587356671469929	0.7897806088196935	
162	3.056603773584906	0.2561947177090248	0.5640637381899131	0.8871277670657255	0.2703400266141344	0.1462168607568911	0.8698204500738258	0.2928966350028007	-0.27685047129323864	0.860329214763569	0.25672713928406954	-0.25377309198713066	0.6790370905400911	0.3156110058850687	-0.26029596605130056	0.7051501799094679	0.29003697851305427	-0.36732017167704856	0.9276583458733387	0.0346934063013889	0.5455373969159554	0.9130077326625	0.07070004210354856	0.14410447787333114	0.8995378621535303	0.09794799108794357	-0.28342229140307784	0.8674692479873019	0.09882941738922124	-0.2651666978910718	0.6977674363895723	0.049743076631464225	-0.27842597203878955	0.736311221075479	0.11898023528466438	-0.32937777393991763	0.889080585167388	0.10979935331684612	1.1399254265351824	0.9233549545439602	0.08182303912617728	1.4080644780387277	0.8701063031919676	0.07614489571253434	1.2603816653101452	0.8276988620605048	0.2596072087977141	1.0712495792175538	0.9097015847027405	0.3713441224885847	0.8344893618929028	0.8680879744497758	0.32847233107516577	0.7044959640932901	0.7000736382944245	0.23214882891419347	0.6895919185539828	0.5634507272140745	0.2555100709825246	0.6708114696983856	0.5737298653935576	0.28198120567212925	0.6106908150956222	0.6197827010358926	-0.04580807308924176	1.06357874866591	0.9468154255912598	-0.10639828901178781	0.8011011667961063	1.0583366140087833	-0.10375295040757951	0.6666736362610279	0.8870228913176381	-0.06488709314951074	0.6583433518337163	0.7793276638541151	-0.0839526499822261	0.6321880388478867	0.7593003418839096	-0.10026996928952397	0.583899976372432	0.7981230397452446	
163	3.0754716981132075	0.2556301426123613	0.5637454070113455	0.8881886165618748	0.27064544579009153	0.14590643388028857	0.8701688187170173	0.2931108086410887	-0.2755819686331724	0.8584923335974335	0.2567102087358746	-0.25426581971069456	0.6787385770554462	0.3156386964201958	-0.26027215469583614	0.7051714377449134	0.28998239416964394	-0.3675134484013481	0.9274334643501363	0.034823882789078976	0.5451881465573221	0.9155353715369126	0.07080190421036321	0.1440720217339539	0.8995966502079877	0.09798659343006103	-0.2835926346551156	0.8674895753115984	0.09868484306959328	-0.26381913224572456	0.6973977264726797	0.0497073178935744	-0.27838277155784447	0.7362524716702634	0.1190558026742103	-0.32942191016135486	0.8892179859645507	0.10979204707861806	1.1394968720720875	0.9231738245065227	0.08117936419182377	1.4080050473953507	0.8700159723160332	0.07654829193169779	1.2610229679985567	0.8250948328914779	0.2596114865871605	1.0717662680673623	0.9099034519113309	0.3715524042327508	0.8353013808203169	0.8660878712242828	0.32797664835801477	0.7080809050788721	0.6958566058743649	0.23213893857579176	0.6953018350970639	0.558579941931998	0.25479709472752765	0.6769715502691506	0.5673815410422849	0.28230354684280756	0.6139707271162368	0.6159594869043239	-0.04583000142884174	1.063656388853276	0.9468533931937095	-0.10581872038678913	0.8007202505973574	1.0610140828343833	-0.1021130609597853	0.6644942076107976	0.8936247901226255	-0.06516642862865568	0.6574270958731232	0.784200865393842	-0.08371604893038065	0.6330797513500126	0.7634587031005079	-0.1033063249888676	0.5802258587635831	0.807878578474969	
164	3.0943396226415096	0.2550896787793661	0.5634739560815845	0.8891317069955595	0.27087261298235893	0.14572814161287284	0.8703679043394177	0.29330874778097055	-0.2743817775583372	0.8569278182580629	0.25664658649320543	-0.25507423665921114	0.6785079023304186	0.31567945568161265	-0.26029061684442356	0.7052564587407768	0.28993492569075746	-0.36774396823705013	0.9272068768094259	0.034980401134379266	0.5448875959142828	0.918085793998486	0.070851526926775	0.14410719035638092	0.8996081983757213	0.09801495749229341	-0.28372347976542106	0.8675038259205803	0.09864741731482693	-0.26251958183729907	0.6976772579215178	0.04967394414595734	-0.27830369989784187	0.7361597955742684	0.11909660444536711	-0.3293076583159752	0.8893282175313636	0.10981264551031483	1.1391350837141696	0.9230430887931174	0.08079631497690434	1.4079967625130758	0.8699691707415811	0.07648702937211987	1.2618121980132109	0.8226324231744313	0.25974182846947536	1.0719803595283712	0.9102256251876656	0.371824362250806	0.8364960302518241	0.8635957087742592	0.3272102921343919	0.7113501094669934	0.6917800092634723	0.23220356367399708	0.7017997128042953	0.5517022001690254	0.2539473537779911	0.6840161588304253	0.5595928993438123	0.2826555288842161	0.617714994857044	0.6119737548292291	-0.045834945099811286	1.0639565728230915	0.9469340105257116	-0.10505746897153137	0.8001690632215499	1.0641197148250305	-0.09987583867261057	0.6622514044293448	0.9006241247465887	-0.06476141416189893	0.6576469354018895	0.7874481131482484	-0.08336097838041742	0.6338329296137583	0.7677193450222111	-0.10575997114128953	0.5765006570660026	0.8186702396927278	
165	3.113207547169812	0.2545822830685036	0.5632851353906294	0.8898624787588445	0.2710081830701069	0.14569268791700757	0.8704199111858679	0.2934872705128964	-0.27324966792602046	0.8556852029745452	0.256522570830167	-0.25619847361217163	0.6784139192645346	0.31572211240822146	-0.26032542266146136	0.705371340811682	0.2899024428722987	-0.36802474512646677	0.9269570735340549	0.03515039063509459	0.5446002443303563	0.9205278020890768	0.0708450735656878	0.14418226414875984	0.8995555537824986	0.09800123341779607	-0.2836790210586038	0.8674958443778205	0.0989369797907933	-0.26209988079857993	0.6991082677396863	0.049641001306114534	-0.2781753798876339	0.7360340636357126	0.11910327436285191	-0.32901911544053414	0.8893980777554654	0.109861487609104	1.1389902244901435	0.9230131244163697	0.08071630396458429	1.408016720070977	0.8699499987848247	0.07593123881217143	1.262748470270619	0.8205636556737428	0.2598836248351807	1.0719754235858556	0.9104247342068974	0.3721152250845393	0.8377270561041473	0.860935147787439	0.3264495913613283	0.7145715316491463	0.6875992497141687	0.23250233284993876	0.7085988119731946	0.5430233029922719	0.25297697149975235	0.6914402568402438	0.5504504540754479	0.2829091888477293	0.6213129073144364	0.6086953552044767	-0.045813262448694714	1.0644274174055741	0.9470510274886124	-0.10412085393077479	0.7997422310804524	1.0672758800176876	-0.09729706369885209	0.6596398225302397	0.9085336026120574	-0.06396164663136676	0.6585485693882454	0.7896766502664067	-0.08308209207098358	0.6342377936016452	0.7714222992225369	-0.10719822845535337	0.5731239993597079	0.8294169588418407	
166	3.1320754716981134	0.2541162437018333	0.5631930943118438	0.8903380973729604	0.27109632816635043	0.1457573447850743	0.870413213278	0.29365870946373734	-0.2720392998419911	0.8547018848064041	0.25636130432254756	-0.25741828615207957	0.6783881162234469	0.315742126064245	-0.2603411378555477	0.7054626675706688	0.28988666066791396	-0.36834289526279473	0.9266869556106458	0.03532983530020756	0.5443147248381189	0.9227966964405256	0.07079849950911006	0.1442548125760394	0.8994660142624392	0.09793980157194498	-0.28343427281390876	0.8674644401789882	0.09960816284304558	-0.2630216767438301	0.7016119609969906	0.04962832519261665	-0.2780263295410297	0.7359187180310099	0.11907650911481932	-0.32855642463291856	0.8894294477144644	0.10991923209523595	1.1390356473892695	0.9230562456449942	0.08085943414015742	1.408059586364745	0.8699305352484747	0.07498657843765354	1.2637173178148993	0.8190608314713634	0.25977248946703896	1.0720394869434746	0.91007701976805	0.37237870298019243	0.8387536294820228	0.8584250940818334	0.32593136453322646	0.7175767745112485	0.6836402018562815	0.2331733321166105	0.7151172302509313	0.5334793606200922	0.251993734590422	0.6984554696430322	0.5407274724869001	0.2830849140854036	0.6245101971158995	0.6061804234333306	-0.045765124620596655	1.0649690333537458	0.9471808531505994	-0.10313256630805614	0.7997492890883724	1.0701262380176177	-0.09466620021953606	0.6569617751370331	0.9166268203400321	-0.0631114097399921	0.6593516717630817	0.7917355901427744	-0.08292387730678902	0.6343775664166152	0.7740320432604778	-0.10772048195994854	0.5703472657093174	0.8393512779561012	
167	3.150943396226415	0.2537043406174612	0.563209505470462	0.8905304279960234	0.27117057193489896	0.14589648464549382	0.8704011745226273	0.29382993812756186	-0.2706687979155047	0.8539358076471141	0.25621617227070353	-0.25832499213508153	0.678320011587231	0.3157235780181133	-0.26031696468901117	0.7054800216648206	0.2898856307400215	-0.368658831588952	0.9264383389485834	0.03551574543540467	0.5440392703760051	0.9248581871890857	0.07073747538378067	0.14429149938623903	0.8993904116700072	0.09785409898692708	-0.283085905143301	0.867422334496751	0.10057490459544234	-0.2651605267772595	0.7045019688671637	0.04969234631975666	-0.27799201652976463	0.7359597850349193	0.11901485560976002	-0.32796583314953576	0.8894323087227903	0.10996090310912277	1.1391225160358918	0.9231029841941667	0.08107058115157662	1.4081202800556083	0.8698932469215078	0.07377877312376614	1.2645531105738657	0.8183322932281593	0.25922547353847103	1.072382914006078	0.9090414904804951	0.3725695584930637	0.8395186824228106	0.8564268156356749	0.3257961054999954	0.7199118277161479	0.6804761798127806	0.23421152580344584	0.7208691588382478	0.5244889581226198	0.25120699699793436	0.704235037372192	0.5317191787269062	0.28338299279114454	0.6275861349417063	0.6036805543041528	-0.045706998978459853	1.065553925734967	0.9473288195369205	-0.1022666186147771	0.8001307783597607	1.0726685643202227	-0.09234145106463823	0.65469119063115	0.9239435761787841	-0.06251830572243988	0.6595013250656796	0.7941797779022851	-0.08282544618316084	0.6346957271387059	0.7754849611590573	-0.10795866755538568	0.5682765345843127	0.8483142050771516	
